<svg width="21" height="20" viewBox="0 0 21 20" fill="none" xmlns="http://www.w3.org/2000/svg">
<path d="M13.5275 14.7539H16.5891C18.8503 14.7539 20.6834 12.9209 20.6834 10.6597C20.6834 8.73931 19.3613 7.12775 17.5776 6.68556C17.6008 6.47812 17.6127 6.26728 17.6127 6.05365C17.6127 2.94452 15.0922 0.424072 11.9831 0.424072C9.4043 0.424072 7.23049 2.15802 6.56393 4.52363C6.49424 4.5201 6.42409 4.51831 6.35352 4.51831C4.09233 4.51831 2.25928 6.35137 2.25928 8.61255C2.25928 8.67066 2.26049 8.72849 2.26289 8.78601C1.06836 9.20653 0.212158 10.3449 0.212158 11.6832C0.212158 13.3791 1.58695 14.7539 3.28284 14.7539H6.19819L10.5826 7.08117C11.1034 6.16984 12.4949 6.53937 12.4949 7.58899V11.6832H13.5184C14.3044 11.6832 14.7971 12.5323 14.4071 13.2146L13.5275 14.7539Z" fill="white"/>
<path d="M7.37708 14.7539L11.4713 7.58899V12.7068H13.5184L9.4242 19.8717V14.7539H7.37708Z" fill="white"/>
</svg>
